HIERARCHY
ROOT Pelvis
{
	OFFSET 0.000000 0.000000 0.000000
	CHANNELS 6 Xposition Yposition Zposition Xrotation Yrotation Zrotation
	JOINT LeftUpLeg_virtual
	{
		OFFSET 0.000000 0.000000 0.000000
		CHANNELS 3 Xrotation Yrotation Zrotation
		JOINT LeftUpLeg
		{
			OFFSET 18.735201 -5.666702 -4.541200
			CHANNELS 3 Xrotation Yrotation Zrotation
			JOINT LeftLeg
			{
				OFFSET -0.021200 -31.938179 0.493100
				CHANNELS 3 Xrotation Yrotation Zrotation
				JOINT LeftFoot
				{
					OFFSET 0.021200 -31.938179 -4.336299
					CHANNELS 3 Xrotation Yrotation Zrotation
					JOINT LeftToeBase
					{
						OFFSET 0.943001 -26.722000 15.023500
						CHANNELS 3 Xrotation Yrotation Zrotation
						End Site
						{
							OFFSET 0 0 0
						}
					}
				}
			}
		}
	}
	JOINT RightUpLeg_virtual
	{
		OFFSET 0.000000 0.000000 0.000000
		CHANNELS 3 Xrotation Yrotation Zrotation
		JOINT RightUpLeg
		{
			OFFSET -18.735201 -5.666702 -4.541200
			CHANNELS 3 Xrotation Yrotation Zrotation
			JOINT RightLeg
			{
				OFFSET 0.018946 -31.938133 0.493100
				CHANNELS 3 Xrotation Yrotation Zrotation
				JOINT RightFoot
				{
					OFFSET -0.018946 -31.938126 -4.336299
					CHANNELS 3 Xrotation Yrotation Zrotation
					JOINT RightToeBase
					{
						OFFSET -0.943001 -26.722004 15.023500
						CHANNELS 3 Xrotation Yrotation Zrotation
						End Site
						{
							OFFSET 0 0 0
						}
					}
				}
			}
		}
	}
	JOINT Hips_virtual
	{
		OFFSET 0.000000 0.000000 0.000000
		CHANNELS 3 Xrotation Yrotation Zrotation
		JOINT Hips
		{
			OFFSET -0.000000 -0.000000 -0.000000
			CHANNELS 3 Xrotation Yrotation Zrotation
			JOINT Spine
			{
				OFFSET 0.000000 10.199997 -0.299500
				CHANNELS 3 Xrotation Yrotation Zrotation
				JOINT Spine1
				{
					OFFSET 0.000000 11.900002 -1.516600
					CHANNELS 3 Xrotation Yrotation Zrotation
					JOINT Spine2
					{
						OFFSET 0.000000 13.600006 -2.842500
						CHANNELS 3 Xrotation Yrotation Zrotation
						JOINT Neck_virtual
						{
							OFFSET 0.000000 0.000000 0.000000
							CHANNELS 3 Xrotation Yrotation Zrotation
							JOINT Neck
							{
								OFFSET 0.000000 9.624100 -2.890100
								CHANNELS 3 Xrotation Yrotation Zrotation
								JOINT Head
								{
									OFFSET 0.000000 14.068802 -1.351900
									CHANNELS 3 Xrotation Yrotation Zrotation
									End Site
									{
										OFFSET 0 0 0
									}
								}
							}
						}
						JOINT LeftShoulder_virtual
						{
							OFFSET 0.000000 0.000000 0.000000
							CHANNELS 3 Xrotation Yrotation Zrotation
							JOINT LeftShoulder
							{
								OFFSET 15.263000 10.923401 -0.547700
								CHANNELS 3 Xrotation Yrotation Zrotation
								JOINT LeftArm
								{
									OFFSET 25.438599 -2.830597 -13.032500
									CHANNELS 3 Xrotation Yrotation Zrotation
									JOINT LeftForeArm
									{
										OFFSET 29.960503 0.000000 0.000000
										CHANNELS 3 Xrotation Yrotation Zrotation
										JOINT LeftHand
										{
											OFFSET 27.849251 0.000000 0.000000
											CHANNELS 3 Xrotation Yrotation Zrotation
											End Site
											{
												OFFSET 0 0 0
											}
										}
									}
								}
							}
						}
						JOINT RightShoulder_virtual
						{
							OFFSET 0.000000 0.000000 0.000000
							CHANNELS 3 Xrotation Yrotation Zrotation
							JOINT RightShoulder
							{
								OFFSET -15.263000 10.923401 -0.547700
								CHANNELS 3 Xrotation Yrotation Zrotation
								JOINT RightArm
								{
									OFFSET -25.438599 -2.830597 -13.032500
									CHANNELS 3 Xrotation Yrotation Zrotation
									JOINT RightForeArm
									{
										OFFSET -29.960503 0.000000 0.000000
										CHANNELS 3 Xrotation Yrotation Zrotation
										JOINT RightHand
										{
											OFFSET -27.849251 0.000000 0.000000
											CHANNELS 3 Xrotation Yrotation Zrotation
											End Site
											{
												OFFSET 0 0 0
											}
										}
									}
								}
							}
						}
					}
				}
			}
		}
	}
}
MOTION
Frames: 9
Frame Time: 0.03333333
-5.104242 93.017830 -0.432318 0.000000 0.000000 0.000000 -86.160357 -87.136316 -85.711798 -13.256011 13.972321 5.848203 29.367618 -1.651781 7.295116 -6.757980 3.901664 -11.681535 0.000000 0.000000 0.000000 -74.654582 -86.283109 -74.535355 -10.473601 -26.563299 -11.274092 23.426126 6.917077 -8.024191 -8.091335 -0.885195 12.530665 0.000000 0.000000 0.000000 -49.461788 -86.275582 -48.520093 0.470016 0.848106 -1.685144 2.054200 2.124255 2.151575 3.718974 0.192538 1.506527 0.000000 0.000000 0.000000 4.087717 0.060935 0.961758 -2.835913 3.701363 -1.935054 0.000000 0.000000 0.000000 3.698981 0.173443 0.960358 -0.928755 4.766799 -0.272441 21.608535 -83.753330 -45.210303 0.257164 -15.329856 1.024875 0.000000 0.000000 0.000000 4.539043 0.496835 1.367282 -0.074913 3.034537 7.382867 7.806454 28.548157 60.306131 0.978023 31.711841 0.469223 0.000000 0.000000 0.000000 
-5.117531 93.009949 -0.425060 0.000000 0.000000 0.000000 -83.485136 -87.084290 -83.016441 -13.321347 13.990541 5.902373 29.257081 -1.717474 7.283733 -7.011394 4.013134 -11.828426 0.000000 0.000000 0.000000 -72.266489 -86.255085 -72.248942 -10.460488 -26.448822 -11.076572 23.265472 7.015357 -8.006913 -8.097008 -0.627592 12.759423 0.000000 0.000000 0.000000 -48.883616 -86.235373 -47.927704 0.539114 0.790538 -1.598475 2.007303 2.091082 2.216164 3.734632 0.180421 1.547877 0.000000 0.000000 0.000000 4.146761 0.049256 1.004394 -2.876827 3.698476 -1.945645 0.000000 0.000000 0.000000 3.735509 0.179598 0.993711 -0.950260 4.870350 -0.257752 21.355109 -83.663021 -45.554988 0.322642 -15.340212 1.022737 0.000000 0.000000 0.000000 4.574714 0.496363 1.403628 -0.079756 2.877910 7.417491 8.178421 27.924899 60.372807 1.050392 31.838790 0.427226 0.000000 0.000000 0.000000 
-5.144785 93.035332 -0.378656 0.000000 0.000000 0.000000 -79.953108 -87.179223 -79.496237 -13.449794 14.189668 6.056111 29.096053 -1.860364 7.271278 -7.547073 4.044347 -12.181833 0.000000 0.000000 0.000000 -68.821054 -86.351486 -68.930296 -10.427575 -26.144212 -10.839066 23.111837 7.135488 -7.978802 -8.436189 -0.284576 13.190479 0.000000 0.000000 0.000000 -48.203725 -86.328858 -47.293186 0.531088 0.755684 -1.576804 1.958479 1.896519 2.296167 3.773139 0.120696 1.629499 0.000000 0.000000 0.000000 4.242437 0.002366 1.096623 -2.860601 3.686543 -1.960604 0.000000 0.000000 0.000000 3.742559 0.136405 1.062378 -0.980570 4.952162 -0.321675 24.283535 -83.562092 -42.674271 0.327274 -15.921847 0.910401 0.000000 0.000000 0.000000 4.574007 0.451245 1.451262 -0.080241 2.642465 7.141883 8.146395 27.450271 60.939344 1.152883 32.239224 0.265576 0.000000 0.000000 0.000000 
-5.175698 93.066536 -0.343002 0.000000 0.000000 0.000000 -76.613733 -87.380126 -76.196299 -13.610528 14.569779 6.336547 28.910336 -2.026463 7.207248 -8.129332 3.961552 -12.761258 0.000000 0.000000 0.000000 -65.197844 -86.527514 -65.399683 -10.624072 -25.704879 -10.718710 23.227365 7.216822 -7.967525 -9.044831 0.001941 13.614567 0.000000 0.000000 0.000000 -47.398504 -86.546454 -46.595332 0.511346 0.802473 -1.620021 1.905507 1.590103 2.353680 3.827997 0.054495 1.727297 0.000000 0.000000 0.000000 4.326009 -0.042985 1.201765 -2.801595 3.670427 -1.976201 0.000000 0.000000 0.000000 3.709432 0.087992 1.144332 -1.011212 4.972795 -0.438707 30.767332 -83.460998 -36.227228 0.275667 -16.870349 0.692821 0.000000 0.000000 0.000000 4.519141 0.397083 1.492565 -0.057514 2.438111 6.663591 7.832001 27.267604 61.654472 1.303206 33.024279 0.029776 0.000000 0.000000 0.000000 
-5.139361 93.070076 -0.303646 0.000000 0.000000 0.000000 -75.204508 -87.610584 -74.828445 -13.808148 15.174932 6.736993 28.725447 -2.097230 7.069194 -8.543703 3.872334 -13.373953 0.000000 0.000000 0.000000 -62.737787 -86.753211 -62.988776 -11.168127 -25.214391 -10.760617 23.821267 7.145958 -7.979144 -9.892125 0.056839 13.749449 0.000000 0.000000 0.000000 -46.995902 -86.859318 -46.330058 0.465552 0.881548 -1.613620 1.882965 1.271181 2.351555 3.900896 0.052038 1.808436 0.000000 0.000000 0.000000 4.379092 -0.029900 1.285304 -2.727137 3.649071 -1.990639 0.000000 0.000000 0.000000 3.668734 0.090586 1.209632 -1.023401 4.958804 -0.573347 39.422479 -83.235602 -27.596558 0.222479 -17.963263 0.398649 0.000000 0.000000 0.000000 4.424976 0.395034 1.509553 0.017276 2.352651 6.147850 7.501919 27.337708 62.226213 1.466279 34.003953 -0.183812 0.000000 0.000000 0.000000 
-4.973932 93.064194 -0.367645 0.000000 0.000000 0.000000 -77.580144 -87.802423 -77.252568 -13.926860 15.888664 7.089742 28.499364 -1.986336 6.913953 -8.977466 3.899195 -13.775683 0.000000 0.000000 0.000000 -63.072760 -87.037271 -63.332219 -11.996549 -24.735682 -10.888811 24.755454 6.898989 -8.012997 -10.760306 -0.148536 13.546271 0.000000 0.000000 0.000000 -47.652324 -87.241747 -47.130863 0.420716 0.900684 -1.632537 1.877003 1.049471 2.236384 3.971126 0.173863 1.839800 0.000000 0.000000 0.000000 4.370656 0.088123 1.306756 -2.673422 3.623225 -2.005760 0.000000 0.000000 0.000000 3.653174 0.199688 1.238187 -1.019558 4.916107 -0.665577 47.487881 -82.794235 -19.501923 0.172857 -18.909131 0.066827 0.000000 0.000000 0.000000 4.324422 0.498968 1.493379 0.138413 2.450953 5.742641 7.327209 27.416883 62.532185 1.600074 34.804656 -0.325692 0.000000 0.000000 0.000000 
-4.685794 93.064117 -0.513462 0.000000 0.000000 0.000000 -85.252420 -87.966635 -84.989635 -13.736327 16.418426 7.173835 28.008540 -1.732394 6.930511 -9.956168 4.065638 -13.870091 0.000000 0.000000 0.000000 -68.094691 -87.370059 -68.366628 -12.977721 -24.222277 -11.006278 25.712667 6.659470 -8.081112 -11.280984 -0.342066 13.230233 0.000000 0.000000 0.000000 -51.769774 -87.692929 -51.384801 0.368786 0.899738 -1.549823 1.874516 0.970144 1.998449 4.047965 0.415266 1.787878 0.000000 0.000000 0.000000 4.334541 0.313607 1.237050 -2.659167 3.586981 -2.016054 0.000000 0.000000 0.000000 3.700183 0.419560 1.195049 -0.980880 4.856654 -0.648570 50.998857 -82.132287 -15.715760 0.162833 -19.797833 -0.212390 0.000000 0.000000 0.000000 4.258336 0.719619 1.417312 0.283462 2.696473 5.529657 7.264180 27.203957 62.577681 1.660425 35.394426 -0.366845 0.000000 0.000000 0.000000 
-4.287459 93.085915 -0.693899 0.000000 0.000000 0.000000 -99.077139 -88.057504 -98.912860 -13.251405 16.576386 6.994125 27.117815 -1.390546 7.172867 -11.414240 4.365259 -13.735551 0.000000 0.000000 0.000000 -79.825336 -87.631812 -80.100647 -14.010103 -23.658136 -11.038210 26.632619 6.590118 -8.173040 -11.148876 -0.285879 13.001023 0.000000 0.000000 0.000000 -63.981510 -88.134493 -63.704669 0.277376 0.782546 -1.422875 1.910555 1.052159 1.665941 4.176928 0.737795 1.637117 0.000000 0.000000 0.000000 4.331876 0.616647 1.072233 -2.697336 3.537028 -2.019890 0.000000 0.000000 0.000000 3.837094 0.711965 1.053356 -0.911155 4.841390 -0.467381 48.011951 -81.201045 -18.120736 0.235457 -21.051970 -0.357438 0.000000 0.000000 0.000000 4.274661 1.018829 1.270852 0.413271 3.008859 5.472778 7.225361 26.542438 62.400417 1.623597 36.256553 -0.300322 0.000000 0.000000 0.000000 
-3.812451 93.089211 -0.989336 0.000000 0.000000 0.000000 -116.687116 -87.933795 -116.630726 -12.910868 16.346663 6.753763 26.113200 -0.875224 7.540134 -12.719873 4.748225 -13.463986 0.000000 0.000000 0.000000 -97.745478 -87.653894 -97.985887 -15.276767 -23.137669 -11.081135 27.748707 6.736063 -8.255353 -10.297936 0.066727 12.775985 0.000000 0.000000 0.000000 -87.592525 -88.336339 -87.376438 0.189283 0.580738 -1.315078 1.998037 1.242676 1.296078 4.406620 1.046160 1.395106 0.000000 0.000000 0.000000 4.445809 0.902465 0.814820 -2.785660 3.480716 -2.018333 0.000000 0.000000 0.000000 4.081173 0.989691 0.814353 -0.834166 4.858641 -0.093675 40.080896 -79.655975 -25.298759 0.328404 -23.152965 -0.340391 0.000000 0.000000 0.000000 4.457187 1.305985 1.055252 0.496407 3.268746 5.480375 7.347175 25.532738 61.900010 1.525025 38.256211 -0.188970 0.000000 0.000000 0.000000 
